<svg version="1.1" xmlns="http://www.w3.org/2000/svg" xmlns:xlink="http://www.w3.org/1999/xlink">
<symbol id="icon-microblog" viewBox="0 0 16 16">
<title>micro.blog</title>
<path id="icon-microblog" d="M9.34 0.2L10.2 0.44L11.02 0.77L11.78 1.18L12.48 1.67L13.1 2.21L13.66 2.83L14.12 3.5L14.49 4.22L14.77 4.99L14.94 5.79L15 6.62L14.99 6.97L14.96 7.31L14.91 7.64L14.83 7.97L14.74 8.3L14.63 8.61L14.5 8.93L14.35 9.23L14.18 9.53L14.01 9.82L13.81 10.11L13.6 10.39L13.38 10.65L13.12 11.01L12.93 11.36L12.78 11.69L12.69 12.02L12.65 12.33L12.64 12.63L12.67 12.91L12.72 13.17L12.79 13.42L12.88 13.65L12.98 13.86L13.09 14.04L13.19 14.2L13.23 14.26L13.25 14.3L13.26 14.34L13.26 14.37L13.24 14.39L13.23 14.41L13.17 14.44L13.14 14.44L13.1 14.44L13.07 14.45L13 14.45L12.76 14.4L12.53 14.34L12.31 14.26L12.09 14.17L11.88 14.06L11.67 13.95L11.48 13.82L11.29 13.68L11.11 13.53L10.94 13.37L10.78 13.2L10.64 13.02L10.5 12.83L10.47 12.81L10.45 12.8L10.42 12.78L10.4 12.77L10.38 12.76L10.36 12.75L10.34 12.74L10.31 12.74L10.29 12.73L10.27 12.74L10.25 12.74L10.22 12.75L10.19 12.76L9.99 12.82L9.78 12.87L9.59 12.92L9.18 13L8.97 13.04L8.76 13.07L8.56 13.09L8.35 13.11L8.14 13.13L7.93 13.14L7.71 13.14L7.5 13.12L6.56 13.07L5.66 12.92L4.8 12.69L3.98 12.37L3.22 11.97L2.52 11.49L1.9 10.95L1.35 10.34L0.88 9.69L0.51 8.98L0.23 8.23L0.06 7.44L0 6.62L0.06 5.8L0.23 5.01L0.51 4.25L0.88 3.53L1.35 2.86L1.9 2.24L2.52 1.69L3.22 1.2L3.98 0.79L4.8 0.45L5.66 0.2L6.56 0.05L7.5 0L8.44 0.05L9.34 0.2ZM7.43 3.06L7.38 3.08L7.33 3.11L7.31 3.13L6.5 5.42L4 5.42L3.95 5.44L3.9 5.48L3.87 5.52L3.85 5.57L3.84 5.62L3.84 5.67L3.85 5.72L3.86 5.74L3.87 5.77L3.88 5.78L3.89 5.79L3.9 5.82L3.92 5.83L3.94 5.84L5.82 7.28L5.19 9.51L5.19 9.57L5.21 9.62L5.24 9.66L5.27 9.7L5.32 9.73L5.37 9.75L5.43 9.76L5.48 9.76L5.49 9.75L5.5 9.75L7.5 8.43L9.5 9.75L9.56 9.77L9.61 9.79L9.72 9.77L9.77 9.75L9.81 9.71L9.85 9.67L9.85 9.65L9.87 9.63L9.87 9.61L9.87 9.58L9.88 9.56L9.88 9.53L9.87 9.51L9.13 7.22L11.06 5.78L11.09 5.73L11.1 5.67L11.1 5.63L11.1 5.58L11.08 5.53L11.04 5.48L11 5.44L10.98 5.44L10.97 5.43L10.96 5.43L10.96 5.42L8.5 5.42L7.69 3.13L7.64 3.09L7.59 3.07L7.55 3.05L7.49 3.05L7.43 3.06Z"></path>
</symbol>
</svg>
