<svg version="1.1" xmlns="http://www.w3.org/2000/svg" xmlns:xlink="http://www.w3.org/1999/xlink">
<symbol id="icon-microblog" viewBox="0 0 16 16">
<title>micro.blog</title>
<path id="icon-microblog" d="M8.09 0.18L8.84 0.38L9.55 0.67L10.21 1.02L10.81 1.45L11.35 1.92L11.84 2.46L12.24 3.04L12.56 3.66L12.8 4.32L12.95 5.02L13 5.74L12.99 6.04L12.96 6.34L12.92 6.63L12.85 6.91L12.77 7.19L12.68 7.47L12.57 7.74L12.44 8.01L12.29 8.27L12.14 8.52L11.97 8.77L11.79 9.01L11.59 9.24L11.37 9.55L11.2 9.85L11.08 10.14L11 10.42L10.96 10.69L10.96 10.95L10.98 11.19L11.03 11.42L11.09 11.64L11.17 11.83L11.25 12.02L11.34 12.18L11.43 12.32L11.46 12.37L11.48 12.4L11.49 12.43L11.49 12.46L11.48 12.48L11.46 12.49L11.42 12.52L11.38 12.52L11.35 12.52L11.32 12.53L11.27 12.53L11.06 12.49L10.86 12.43L10.67 12.37L10.48 12.29L10.29 12.19L10.12 12.1L9.95 11.99L9.78 11.87L9.63 11.73L9.48 11.59L9.34 11.44L9.22 11.29L9.1 11.12L9.08 11.11L9.06 11.1L9.03 11.08L9.01 11.07L9 11.07L8.98 11.05L8.96 11.05L8.93 11.05L8.92 11.04L8.9 11.05L8.88 11.05L8.86 11.05L8.83 11.07L8.65 11.12L8.48 11.16L8.31 11.2L7.95 11.27L7.78 11.3L7.59 11.33L7.42 11.35L7.23 11.37L7.06 11.38L6.87 11.39L6.69 11.39L6.5 11.38L5.69 11.33L4.91 11.21L4.16 11L3.45 10.73L2.79 10.38L2.19 9.96L1.65 9.49L1.17 8.97L0.76 8.4L0.44 7.79L0.2 7.13L0.05 6.45L0 5.74L0.05 5.03L0.2 4.34L0.44 3.68L0.76 3.06L1.17 2.48L1.65 1.95L2.19 1.46L2.79 1.04L3.45 0.68L4.16 0.39L4.91 0.18L5.69 0.04L6.5 0L7.31 0.04L8.09 0.18ZM6.44 2.65L6.4 2.67L6.36 2.7L6.34 2.71L5.63 4.7L3.47 4.7L3.43 4.72L3.38 4.75L3.36 4.79L3.33 4.83L3.33 4.87L3.33 4.92L3.33 4.96L3.35 4.98L3.35 5L3.36 5.01L3.37 5.02L3.38 5.04L3.4 5.05L3.41 5.06L5.04 6.32L4.5 8.25L4.5 8.3L4.52 8.34L4.54 8.38L4.57 8.41L4.61 8.44L4.66 8.46L4.71 8.46L4.75 8.46L4.76 8.46L4.77 8.46L6.5 7.31L8.23 8.46L8.28 8.48L8.33 8.49L8.42 8.48L8.47 8.45L8.5 8.42L8.53 8.38L8.54 8.37L8.55 8.35L8.56 8.33L8.56 8.31L8.56 8.29L8.56 8.27L8.56 8.25L7.91 6.26L9.59 5.01L9.61 4.97L9.62 4.92L9.62 4.88L9.62 4.84L9.6 4.79L9.57 4.75L9.53 4.72L9.52 4.72L9.51 4.71L9.5 4.71L9.5 4.7L7.37 4.7L6.66 2.71L6.62 2.68L6.58 2.66L6.54 2.65L6.49 2.65L6.44 2.65Z"></path>
</symbol>
</svg>
