<svg version="1.1" xmlns="http://www.w3.org/2000/svg" xmlns:xlink="http://www.w3.org/1999/xlink">
<symbol id="icon-microblog" viewBox="0 0 16 16">
<title>micro.blog</title>
<path id="icon-microblog" d="M13.28 0.29L14.51 0.63L15.67 1.1L16.75 1.68L17.74 2.37L18.63 3.15L19.42 4.03L20.08 4.98L20.61 6L21.01 7.09L21.25 8.23L21.33 9.42L21.32 9.91L21.27 10.39L21.2 10.87L21.09 11.34L20.96 11.8L20.8 12.25L20.62 12.7L20.41 13.13L20.17 13.56L19.92 13.97L19.64 14.38L19.34 14.77L19.02 15.15L18.66 15.66L18.38 16.15L18.18 16.63L18.05 17.09L17.99 17.54L17.98 17.96L18.01 18.36L18.09 18.73L18.19 19.09L18.32 19.41L18.46 19.71L18.61 19.97L18.76 20.2L18.81 20.28L18.84 20.34L18.85 20.39L18.85 20.43L18.83 20.47L18.81 20.49L18.77 20.51L18.73 20.53L18.68 20.54L18.63 20.54L18.58 20.55L18.53 20.55L18.49 20.55L18.15 20.48L17.82 20.39L17.5 20.28L17.19 20.15L16.89 20L16.6 19.84L16.32 19.66L16.05 19.46L15.8 19.24L15.56 19.01L15.33 18.77L15.13 18.51L14.93 18.24L14.89 18.22L14.86 18.2L14.82 18.18L14.79 18.16L14.76 18.15L14.73 18.13L14.7 18.12L14.66 18.12L14.63 18.11L14.6 18.12L14.57 18.12L14.53 18.13L14.49 18.15L14.2 18.23L13.91 18.3L13.63 18.37L13.34 18.43L13.05 18.49L12.76 18.54L12.46 18.59L12.17 18.62L11.87 18.65L11.58 18.67L11.28 18.68L10.97 18.68L10.67 18.66L9.33 18.59L8.05 18.38L6.82 18.04L5.66 17.59L4.58 17.02L3.59 16.34L2.7 15.57L1.92 14.71L1.25 13.78L0.72 12.77L0.33 11.7L0.08 10.58L0 9.42L0.08 8.25L0.33 7.12L0.72 6.04L1.25 5.02L1.92 4.07L2.7 3.19L3.59 2.4L4.58 1.7L5.66 1.12L6.82 0.64L8.05 0.29L9.33 0.07L10.67 0L12 0.07L13.28 0.29ZM10.5 4.38L10.43 4.42L10.42 4.43L10.41 4.44L10.4 4.45L10.4 4.45L9.24 7.71L5.69 7.71L5.62 7.74L5.55 7.79L5.51 7.85L5.47 7.92L5.46 7.99L5.46 8.07L5.47 8.14L5.49 8.17L5.5 8.2L5.52 8.22L5.53 8.24L5.55 8.27L5.58 8.29L5.6 8.3L8.27 10.36L7.38 13.53L7.38 13.61L7.41 13.68L7.45 13.74L7.5 13.8L7.57 13.84L7.64 13.87L7.72 13.88L7.74 13.88L7.75 13.88L7.77 13.88L7.78 13.88L7.79 13.88L7.81 13.87L7.82 13.87L10.67 11.99L13.51 13.87L13.59 13.9L13.66 13.92L13.74 13.91L13.82 13.9L13.89 13.86L13.95 13.81L14 13.75L14.01 13.72L14.03 13.69L14.04 13.66L14.04 13.63L14.05 13.59L14.05 13.56L14.04 13.53L12.98 10.27L15.73 8.22L15.77 8.15L15.79 8.07L15.79 8L15.78 7.93L15.75 7.86L15.7 7.79L15.64 7.74L15.62 7.74L15.61 7.73L15.6 7.72L15.59 7.72L15.58 7.71L15.57 7.71L15.56 7.71L12.09 7.71L10.93 4.45L10.87 4.4L10.8 4.36L10.73 4.34L10.65 4.34L10.57 4.35L10.5 4.38Z"></path>
</symbol>
</svg>
