<svg version="1.1" xmlns="http://www.w3.org/2000/svg" xmlns:xlink="http://www.w3.org/1999/xlink">
<symbol id="icon-microblog" viewBox="0 0 16 16">
<title>micro.blog</title>
<path id="icon-microblog" d="M9.96 0.22L10.88 0.49L11.75 0.85L12.57 1.31L13.31 1.85L13.97 2.45L14.57 3.13L15.06 3.88L15.46 4.67L15.75 5.53L15.94 6.41L16 7.33L15.99 7.72L15.96 8.09L15.9 8.46L15.82 8.82L15.72 9.19L15.61 9.53L15.47 9.89L15.31 10.22L15.13 10.55L14.94 10.87L14.73 11.19L14.51 11.5L14.27 11.79L13.99 12.19L13.79 12.58L13.63 12.94L13.54 13.31L13.49 13.65L13.48 13.98L13.51 14.29L13.57 14.58L13.64 14.86L13.74 15.11L13.85 15.35L13.96 15.55L14.07 15.72L14.11 15.79L14.13 15.83L14.14 15.88L14.14 15.91L14.12 15.93L14.11 15.96L14.05 15.99L13.97 15.99L13.94 16L13.87 16L13.61 15.94L13.37 15.88L13.13 15.79L12.9 15.69L12.45 15.45L12.25 15.3L12.04 15.15L11.85 14.98L11.67 14.8L11.5 14.62L11.35 14.42L11.2 14.21L11.17 14.18L11.15 14.17L11.11 14.15L11.03 14.11L11 14.11L10.98 14.1L10.95 14.11L10.93 14.11L10.87 14.13L10.66 14.2L10.43 14.25L10.23 14.31L9.79 14.39L9.57 14.44L9.34 14.47L9.13 14.49L8.68 14.54L8.46 14.55L8.22 14.55L8 14.53L7 14.47L6.04 14.31L5.12 14.05L4.25 13.7L3.43 13.25L2.69 12.72L2.03 12.12L1.44 11.45L0.94 10.73L0.54 9.94L0.25 9.11L0.06 8.24L0 7.33L0.06 6.42L0.25 5.55L0.54 4.71L0.94 3.91L1.44 3.17L2.03 2.48L2.69 1.87L3.43 1.33L4.25 0.87L5.12 0.5L6.04 0.22L7 0.06L8 0L9 0.06L9.96 0.22ZM7.93 3.39L7.87 3.41L7.82 3.44L7.8 3.47L6.93 6L4.27 6L4.21 6.02L4.16 6.07L4.13 6.11L4.11 6.17L4.1 6.22L4.1 6.28L4.11 6.33L4.12 6.36L4.13 6.39L4.15 6.41L4.16 6.44L4.2 6.47L6.21 8.06L5.54 10.53L5.54 10.6L5.56 10.65L5.62 10.74L5.67 10.77L5.73 10.8L5.79 10.81L5.85 10.81L5.86 10.8L5.87 10.8L8 9.33L10.13 10.8L10.2 10.82L10.25 10.84L10.37 10.82L10.42 10.8L10.51 10.71L10.51 10.69L10.53 10.66L10.53 10.61L10.54 10.59L10.54 10.55L10.53 10.53L9.74 7.99L11.8 6.4L11.83 6.34L11.84 6.28L11.84 6.18L11.82 6.12L11.78 6.07L11.73 6.02L11.71 6.02L11.7 6.01L11.69 6.01L11.69 6L9.07 6L8.2 3.47L8.15 3.42L8.1 3.4L8.05 3.38L7.99 3.38L7.93 3.39Z"></path>
</symbol>
</svg>
