<svg version="1.1" xmlns="http://www.w3.org/2000/svg" xmlns:xlink="http://www.w3.org/1999/xlink">
<symbol id="icon-microblog" viewBox="0 0 16 16">
<title>micro.blog</title>
<path id="icon-microblog" d="M8.72 0.19L9.52 0.41L10.29 0.72L10.99 1.1L11.64 1.56L12.23 2.07L12.75 2.65L13.18 3.27L13.53 3.94L13.79 4.65L13.95 5.4L14 6.18L13.99 6.51L13.96 6.82L13.91 7.14L13.84 7.44L13.76 7.75L13.65 8.04L13.53 8.34L13.4 8.62L13.24 8.9L13.07 9.17L12.89 9.44L12.69 9.7L12.48 9.95L12.25 10.28L12.06 10.6L11.93 10.92L11.85 11.22L11.81 11.51L11.8 11.79L11.82 12.05L11.87 12.3L11.94 12.53L12.02 12.74L12.12 12.94L12.21 13.11L12.31 13.26L12.35 13.31L12.37 13.35L12.37 13.38L12.37 13.41L12.36 13.44L12.35 13.45L12.29 13.48L12.26 13.48L12.23 13.48L12.2 13.49L12.14 13.49L11.91 13.44L11.7 13.38L11.49 13.31L11.28 13.23L11.09 13.13L10.9 13.02L10.71 12.91L10.53 12.77L10.37 12.63L10.21 12.48L10.06 12.32L9.93 12.15L9.8 11.97L9.77 11.96L9.75 11.95L9.73 11.93L9.71 11.92L9.69 11.91L9.67 11.9L9.65 11.89L9.62 11.89L9.6 11.89L9.58 11.89L9.56 11.89L9.54 11.9L9.51 11.91L9.32 11.97L9.13 12.01L8.95 12.06L8.57 12.14L8.38 12.17L8.18 12.2L7.99 12.22L7.79 12.24L7.6 12.26L7.4 12.26L7.2 12.26L7 12.25L6.12 12.2L5.28 12.07L4.48 11.84L3.71 11.55L3.01 11.17L2.36 10.73L1.77 10.22L1.26 9.66L0.82 9.05L0.47 8.38L0.22 7.68L0.05 6.95L0 6.18L0.05 5.42L0.22 4.67L0.47 3.96L0.82 3.3L1.26 2.67L1.77 2.09L2.36 1.58L3.01 1.12L3.71 0.74L4.48 0.42L5.28 0.19L6.12 0.05L7 0L7.88 0.05L8.72 0.19ZM6.94 2.86L6.89 2.88L6.85 2.9L6.83 2.92L6.06 5.06L3.73 5.06L3.69 5.08L3.64 5.11L3.62 5.15L3.59 5.2L3.58 5.25L3.58 5.3L3.59 5.34L3.6 5.36L3.61 5.38L3.62 5.4L3.63 5.41L3.64 5.43L3.66 5.44L3.68 5.45L5.43 6.8L4.84 8.88L4.84 8.93L4.86 8.98L4.89 9.02L4.92 9.06L4.97 9.09L5.01 9.1L5.07 9.11L5.11 9.11L5.13 9.1L5.13 9.1L7 7.87L8.87 9.1L8.92 9.12L8.97 9.14L9.07 9.12L9.12 9.1L9.16 9.07L9.19 9.03L9.2 9.01L9.21 8.99L9.22 8.97L9.22 8.95L9.22 8.92L9.22 8.9L9.22 8.88L8.52 6.74L10.32 5.4L10.35 5.35L10.36 5.3L10.36 5.25L10.36 5.21L10.34 5.16L10.3 5.11L10.27 5.08L10.25 5.08L10.24 5.07L10.23 5.07L10.23 5.06L7.94 5.06L7.17 2.92L7.13 2.89L7.09 2.86L7.04 2.85L6.99 2.85L6.94 2.86Z"></path>
</symbol>
</svg>
